HIERARCHY
ROOT hip
{
  OFFSET 0 0 0
  CHANNELS 6 Xposition Yposition Zposition Zrotation Yrotation Xrotation
  JOINT abdomen
  {
    OFFSET 0 20.6881 -0.73152
    CHANNELS 3 Zrotation Xrotation Yrotation
    JOINT chest
    {
      OFFSET 0 11.7043 -0.48768
      CHANNELS 3 Zrotation Xrotation Yrotation
      JOINT neck
      {
        OFFSET 0 22.1894 -2.19456
        CHANNELS 3 Zrotation Xrotation Yrotation
        JOINT head
        {
          OFFSET -0.24384 7.07133 1.2192
          CHANNELS 3 Zrotation Xrotation Yrotation
          JOINT leftEye
          {
            OFFSET 4.14528 8.04674 8.04672
            CHANNELS 3 Zrotation Xrotation Yrotation
            End Site
            {
              OFFSET 1 0 0
            }
          }
          JOINT rightEye
          {
            OFFSET -3.6576 8.04674 8.04672
            CHANNELS 3 Zrotation Xrotation Yrotation
            End Site
            {
              OFFSET 1 0 0
            }
          }
        }
      }
      JOINT rCollar
      {
        OFFSET -2.68224 19.2634 -4.8768
        CHANNELS 3 Zrotation Xrotation Yrotation
        JOINT rShldr
        {
          OFFSET -8.77824 -1.95073 1.46304
          CHANNELS 3 Zrotation Xrotation Yrotation
          JOINT rForeArm
          {
            OFFSET -28.1742 -1.7115 0.48768
            CHANNELS 3 Zrotation Xrotation Yrotation
            JOINT rHand
            {
              OFFSET -22.5879 0.773209 7.07136
              CHANNELS 3 Zrotation Xrotation Yrotation
              JOINT rThumb1
              {
                OFFSET -1.2192 -0.487915 3.41376
                CHANNELS 3 Zrotation Xrotation Yrotation
                JOINT rThumb2
                {
                  OFFSET -3.37035 -0.52449 3.41376
                  CHANNELS 3 Zrotation Xrotation Yrotation
                  End Site
                  {
                    OFFSET -1.78271 -1.18214 1.43049
                  }
                }
              }
              JOINT rIndex1
              {
                OFFSET -7.75947 0.938293 5.60832
                CHANNELS 3 Zrotation Xrotation Yrotation
                JOINT rIndex2
                {
                  OFFSET -2.54057 -0.884171 1.56538
                  CHANNELS 3 Zrotation Xrotation Yrotation
                  End Site
                  {
                    OFFSET -1.62519 -0.234802 1.16502
                  }
                }
              }
              JOINT rMid1
              {
                OFFSET -8.24714 1.18213 3.41376
                CHANNELS 3 Zrotation Xrotation Yrotation
                JOINT rMid2
                {
                  OFFSET -3.10165 -0.590103 1.0647
                  CHANNELS 3 Zrotation Xrotation Yrotation
                  End Site
                  {
                    OFFSET -2.48547 -0.328903 0.83742
                  }
                }
              }
              JOINT rRing1
              {
                OFFSET -8.82822 0.546677 1.51678
                CHANNELS 3 Zrotation Xrotation Yrotation
                JOINT rRing2
                {
                  OFFSET -2.60934 -0.819778 -0.0198488
                  CHANNELS 3 Zrotation Xrotation Yrotation
                  End Site
                  {
                    OFFSET -2.33842 -0.294052 0.168128
                  }
                }
              }
              JOINT rPinky1
              {
                OFFSET -8.27202 -0.0477905 -0.4584
                CHANNELS 3 Zrotation Xrotation Yrotation
                JOINT rPinky2
                {
                  OFFSET -1.82734 -0.647385 -0.700984
                  CHANNELS 3 Zrotation Xrotation Yrotation
                  End Site
                  {
                    OFFSET -1.69225 -0.51767 -0.607171
                  }
                }
              }
            }
          }
        }
      }
      JOINT lCollar
      {
        OFFSET 2.68224 19.2634 -4.8768
        CHANNELS 3 Zrotation Xrotation Yrotation
        JOINT lShldr
        {
          OFFSET 8.77824 -1.95073 1.46304
          CHANNELS 3 Zrotation Xrotation Yrotation
          JOINT lForeArm
          {
            OFFSET 28.1742 -1.7115 0.48768
            CHANNELS 3 Zrotation Xrotation Yrotation
            JOINT lHand
            {
              OFFSET 22.5879 0.773209 7.07136
              CHANNELS 3 Zrotation Xrotation Yrotation
              JOINT lThumb1
              {
                OFFSET 1.2192 -0.487915 3.41376
                CHANNELS 3 Zrotation Xrotation Yrotation
                JOINT lThumb2
                {
                  OFFSET 3.37035 -0.52449 3.41376
                  CHANNELS 3 Zrotation Xrotation Yrotation
                  End Site
                  {
                    OFFSET 1.78271 -1.18214 1.43049
                  }
                }
              }
              JOINT lIndex1
              {
                OFFSET 7.75947 0.938293 5.60832
                CHANNELS 3 Zrotation Xrotation Yrotation
                JOINT lIndex2
                {
                  OFFSET 2.54057 -0.884171 1.56538
                  CHANNELS 3 Zrotation Xrotation Yrotation
                  End Site
                  {
                    OFFSET 1.62519 -0.234802 1.16502
                  }
                }
              }
              JOINT lMid1
              {
                OFFSET 8.24714 1.18213 3.41376
                CHANNELS 3 Zrotation Xrotation Yrotation
                JOINT lMid2
                {
                  OFFSET 3.10165 -0.590103 1.0647
                  CHANNELS 3 Zrotation Xrotation Yrotation
                  End Site
                  {
                    OFFSET 2.48547 -0.328903 0.83742
                  }
                }
              }
              JOINT lRing1
              {
                OFFSET 8.82822 0.546677 1.51678
                CHANNELS 3 Zrotation Xrotation Yrotation
                JOINT lRing2
                {
                  OFFSET 2.60934 -0.819778 -0.0198488
                  CHANNELS 3 Zrotation Xrotation Yrotation
                  End Site
                  {
                    OFFSET 2.33842 -0.294052 0.168128
                  }
                }
              }
              JOINT lPinky1
              {
                OFFSET 8.27202 -0.0477905 -0.4584
                CHANNELS 3 Zrotation Xrotation Yrotation
                JOINT lPinky2
                {
                  OFFSET 1.82734 -0.647385 -0.700984
                  CHANNELS 3 Zrotation Xrotation Yrotation
                  End Site
                  {
                    OFFSET 1.69225 -0.51767 -0.607171
                  }
                }
              }
            }
          }
        }
      }
    }
  }
  JOINT rButtock
  {
    OFFSET -8.77824 4.35084 1.2192
    CHANNELS 3 Zrotation Xrotation Yrotation
    JOINT rThigh
    {
      OFFSET 0 -1.70687 -2.19456
      CHANNELS 3 Zrotation Xrotation Yrotation
      JOINT rShin
      {
        OFFSET 0 -36.8199 0.73152
        CHANNELS 3 Zrotation Xrotation Yrotation
        JOINT rFoot
        {
          OFFSET 0.73152 -45.1104 -5.12064
          CHANNELS 3 Zrotation Xrotation Yrotation
          End Site
          {
            OFFSET -1.1221 -3.69964 12.103
          }
        }
      }
    }
  }
  JOINT lButtock
  {
    OFFSET 8.77824 4.35084 1.2192
    CHANNELS 3 Zrotation Xrotation Yrotation
    JOINT lThigh
    {
      OFFSET 0 -1.70687 -2.19456
      CHANNELS 3 Zrotation Xrotation Yrotation
      JOINT lShin
      {
        OFFSET 0 -36.8199 0.73152
        CHANNELS 3 Zrotation Xrotation Yrotation
        JOINT lFoot
        {
          OFFSET -0.73152 -45.1104 -5.12064
          CHANNELS 3 Zrotation Xrotation Yrotation
          End Site
          {
            OFFSET 1.1221 -3.69964 12.103
          }
        }
      }
    }
  }
}
MOTION
Frames:	8
Frame Time:	0.03333
0.0 0.0 0.0 0.0 0.0 0.0 0.0 0.0 0.0 0.0 0.0 0.0 0.0 0.0 0.0 0.0 0.0 0.0 0.0 0.0 0.0 0.0 0.0 0.0 0.0 0.0 0.0 0.0 0.0 0.0 0.0 0.0 0.0 0.0 0.0 0.0 0.0 0.0 0.0 0.0 0.0 0.0 0.0 0.0 0.0 0.0 0.0 0.0 0.0 0.0 0.0 0.0 0.0 0.0 0.0 0.0 0.0 0.0 0.0 0.0 0.0 0.0 0.0 0.0 0.0 0.0 0.0 0.0 0.0 0.0 0.0 0.0 0.0 0.0 0.0 0.0 0.0 0.0 0.0 0.0 0.0 0.0 0.0 0.0 0.0 0.0 0.0 0.0 0.0 0.0 0.0 0.0 0.0 0.0 0.0 0.0 0.0 0.0 0.0 0.0 0.0 0.0 0.0 0.0 0.0 0.0 0.0 0.0 0.0 0.0 0.0 0.0 0.0 0.0 0.0 0.0 0.0 0.0 0.0 0.0 0.0 0.0 0.0 0.0 0.0 0.0 0.0 0.0 0.0 0.0 0.0 0.0
-0.4388 62.1661 0.06369999999999999 -179.80191 -26.727709 179.472004 1.856924 -0.287529 -105.394078 -10.569094 -3.682032 101.074746 9.253958 -10.768118 94.700527 -35.073 39.491426 -125.048869 155.166093 -7.11748 31.546326 64.191357 -28.313573 -43.816716 -97.230004 -61.163393 157.468857 -85.40697 75.68646 91.857591 0.012641 -3.092528 158.366746 76.314332 -58.380404 -7.352337 -177.583279 3.153533 52.135804 146.82394 12.537333 -85.733319 -43.500246 38.319061 -54.137584 -96.383573 79.287153 -118.370182 -22.618777 14.796438 -118.958345 15.001147 2.363403 3.37174 -87.744629 16.868646 -97.842572 13.948652 44.787071 -4.164008 38.151654 3.192759 -59.471331 -135.01702 -27.908995 -114.841314 -75.77366 -88.801852 24.613354 4.290503 44.149974 -16.441521 81.821099 -81.276528 -75.907695 -76.042825 -60.873586 -26.132327 -173.288372 -6.015763 -79.491444 1.387336 -47.719808 0.885362 100.938349 8.113897 -61.620942 67.150215 47.415555 -71.351398 -6.563458 18.114229 -1.450736 28.920548 -69.116205 -2.031218 -88.929763 -2.333024 87.473751 32.451574 -80.008352 76.738448 -115.217389 3.048444 47.543107 93.927395 -57.712384 106.254295 5.147971 53.861545 -180.0 10.133128 53.223343 -156.720085 -5.079168 1.671564 -89.91343 -71.063708 -2.242774 99.684231 -43.601486 -20.702392 -67.530279 2.342528 48.741393 4.117334 -4.313065 -6.444569 -36.407859 65.313405 -29.948741 -117.340965
-0.8675 64.0243 -0.3993 -25.977161 -71.550619 25.365057 5.974522 12.919099 -1.096917 -1.58331 -5.83452 11.939921 7.057114 19.095541 112.149568 -34.31525 14.814576 -105.26267 -1.732578 -0.322998 21.118908 -8.445514 1.348666 -18.114435 -39.668301 -84.519391 -64.661576 132.363188 48.437526 -117.929388 176.682584 1.478461 87.804992 173.670829 -10.961323 141.536278 -87.868264 46.462284 46.253181 20.846619 -35.077466 18.325675 -155.430187 -47.51736 132.698733 -152.784182 -56.728994 122.324622 -88.443288 59.454049 81.640965 -4.81989 46.038762 -1.433284 -69.289556 -80.469407 -83.377091 -154.886791 3.278485 -172.448373 -121.054685 68.499644 169.644569 22.094276 47.479329 -26.805504 39.383208 70.619377 -43.364651 -58.806661 -21.808996 -70.518275 -170.148117 18.893766 -117.840769 -175.346611 -5.954668 -147.316393 -84.980691 -53.834207 -38.725874 125.829824 -69.444831 163.645714 29.887801 30.969536 -17.655862 3.862991 27.195245 -10.202975 170.140526 8.377534 -151.344113 10.401873 -50.839145 16.516241 121.154432 -51.475392 159.113704 134.647815 13.06285 -155.470181 138.576632 49.459826 155.049408 -94.905483 63.603112 50.717863 -67.629524 15.196738 -46.903098 49.673408 28.292025 -0.0 -35.903115 41.272356 -117.959276 50.956673 -6.1114 153.924301 -61.50257 37.802341 -49.107912 133.140231 13.122517 -83.105598 -67.426245 -34.09679 -119.44927 107.343223 60.845921 172.882172
-1.4123999999999999 63.698699999999995 -0.3694 -32.365471 -65.292482 28.30512 15.849829 8.81854 118.368053 0.851364 4.947301 -107.353313 -12.998285 11.323312 -38.54378 28.731129 -8.421726 33.190478 -2.256208 -0.785168 38.372077 1.388294 0.105812 8.716618 -151.800467 -5.602027 161.224218 125.808253 -45.53074 158.455703 -10.322706 -41.811068 46.782839 -5.310067 22.783229 -2.504709 -93.395342 37.908136 48.684641 -136.798416 -8.690449 79.403905 -3.888393 -1.076147 3.322565 -146.198354 -12.421371 111.494202 -172.522072 -67.655461 146.216227 95.510501 -61.339406 50.404382 -11.253741 -3.553825 8.461956 13.49285 -0.120982 -6.29521 -119.632696 -28.281971 -128.715493 18.580472 -43.257627 1.865863 10.116937 31.524367 -8.338939 -165.278107 -59.540872 -89.42732 -156.30068 -82.59879 -78.050934 -163.482691 -30.174032 -141.639009 95.247656 40.846137 -54.371983 114.302712 -18.060625 -93.23525 143.831776 6.653821 -114.998994 77.721456 66.610265 -39.286143 5.614286 1.704528 6.000687 -16.832922 -23.98393 0.853803 140.36531 0.791473 -178.398369 28.010662 -73.877487 51.225136 -27.863365 41.51951 -3.71057 156.998262 37.020776 153.908456 -7.431224 -5.060707 8.956217 2.474467 17.137307 -8.343374 15.147477 41.350221 130.511134 -106.611799 8.923094 -161.806276 -1.780337 8.563387 11.790854 71.104976 -69.751588 166.190987 80.010153 -21.030446 81.100735 -103.313278 17.515172 164.530724
-1.8803 61.2997 0.3421 -32.104183 -63.45367 25.949199 13.393406 12.882358 133.116506 -4.484467 3.238205 -121.162909 -7.842511 26.668308 -116.218632 29.085327 20.150863 103.478322 18.483287 8.392045 48.540871 -10.881218 1.937429 -20.134118 -153.024273 -4.079846 161.738679 131.133345 -25.96383 159.946701 170.176901 28.935628 96.442997 160.35705 -27.633071 138.483928 -172.341095 8.961641 86.851336 -42.481072 -46.822693 -11.572387 -143.484531 6.345112 108.186471 -14.505372 44.086196 10.262553 17.445136 -40.525686 6.722734 -175.301205 -17.54845 141.945405 1.306782 -1.792972 0.501528 -163.212886 -1.743877 167.674215 3.84562 -21.459073 -0.039211 -147.842793 -43.934291 -109.745649 14.93333 33.637559 -14.460199 120.468498 -26.788708 -136.542388 127.474383 -8.893726 160.544462 -14.81935 -24.37111 -10.069682 93.304891 40.040692 -49.074687 173.083729 -47.326111 -57.720193 -47.389043 -74.739246 -3.558044 -21.496762 15.09645 10.13901 160.732338 39.688122 -139.68961 160.440126 18.839872 -127.267404 25.394839 32.068721 -44.852856 112.546858 -2.718006 169.708514 -8.578715 49.189626 -4.430245 -3.60262 -67.680103 -3.863596 -0.255011 2.103092 6.915255 -7.015585 12.143327 30.327899 26.861457 23.687463 -65.260567 -142.49883 -3.26596 14.371021 11.027307 5.278181 11.928171 45.540938 -65.555728 43.204557 -6.417506 71.078416 -27.90983 -75.251181 -46.044984 21.393818
-2.6237 60.1881 1.0681 -32.054489 -64.101325 25.276758 12.371254 19.789733 -3.755699 4.126603 -11.687185 14.169635 1.309204 14.149331 34.764098 -17.640361 -17.123853 -41.900958 18.878459 7.373267 42.368698 -16.258333 4.387197 -30.022636 -11.448385 34.345307 12.891265 55.892578 19.083292 28.635557 144.586826 10.090866 109.185399 169.180226 1.83029 146.81906 -85.747615 37.809609 36.456788 92.053467 -37.195958 45.260113 -9.186952 1.047444 -1.201706 -8.364359 1.710058 0.154177 2.491429 -26.916436 7.653301 9.288503 -7.006415 -16.027937 -144.30284 2.086032 177.956882 22.575729 51.883939 -9.804904 -1.488433 2.736045 5.397345 -44.442695 -22.34885 -35.831175 156.854986 -48.123804 -170.831307 -7.48545 43.980157 53.45428 17.860106 86.219202 -54.61699 7.971248 34.986621 -3.862301 -6.565949 -9.95562 -1.627245 105.071096 29.091766 -127.48857 126.399572 -0.831189 -112.958648 121.920236 27.679314 -107.196108 167.647005 -4.679173 -155.371948 156.098298 -69.371419 -175.256755 11.000669 -3.919089 -15.291631 109.876333 -19.265813 142.37523 172.267238 7.738289 125.360322 -64.191405 60.545566 67.154088 9.665498 5.260858 0.0 -20.695182 9.428351 -46.106646 -31.308586 41.57673 -138.088187 120.751639 -12.865358 177.828752 4.525022 -6.08686 -5.326106 57.133168 -42.679665 66.346776 54.191639 76.897446 170.387425 -43.081437 53.18389 136.052871
-3.3661000000000003 59.9797 1.8167 -33.912229 -64.920888 26.683507 13.246624 19.753126 -0.0 2.916292 -11.528127 9.427212 -17.338783 22.824289 -47.287397 37.931162 -9.791259 47.785532 9.839377 3.624912 40.36943 -9.132601 2.021018 -24.907869 -158.252788 -5.986938 160.191754 135.530779 -10.085844 169.146109 174.991794 7.942699 99.682348 158.393763 -27.534779 137.622081 -89.596749 35.614922 44.149532 26.430908 -23.167824 30.591244 148.489466 -66.39888 99.66347 -168.71914 -26.275618 112.870622 2.656536 -22.794871 6.906516 8.045101 -7.057471 -17.881361 -144.411809 9.501988 168.322683 -152.187496 -19.952028 -175.448205 46.553614 79.29431 -19.366814 -140.967711 12.429043 -141.440712 14.203682 50.940353 -19.750781 -82.116419 -16.135838 -58.691208 -173.484849 -3.060599 -113.412532 -171.318798 -19.810577 -144.453752 0.379019 0.210479 -3.71277 6.076486 47.093461 -10.296909 -11.028928 0.008465 -7.571086 -160.661039 -59.304527 -105.268908 155.863308 22.320151 -143.908921 -1.430058 -26.040721 11.512926 84.133869 64.405201 -83.370717 3.216533 41.144237 -46.662337 0.055713 54.335476 3.951739 -145.626054 -78.747662 -136.643606 73.203052 28.999486 30.749774 -79.029364 40.301465 72.03074 49.824858 -19.822727 117.944799 -178.125223 -3.586116 -104.083227 54.605496 11.843891 43.473123 -45.840927 -48.493084 -138.247389 -90.705706 -36.087383 -100.493728 153.054994 20.691953 168.591679
-3.9662999999999995 59.8971 2.7005999999999997 -33.666571 -64.557026 26.968533 11.853409 14.936066 92.979571 -7.629538 -2.886033 -81.006827 -4.563188 38.189867 176.929826 -13.93689 49.544633 -175.155091 -2.745804 -0.690569 28.229324 3.026583 -0.755895 -28.039872 1.861292 -25.986493 -4.656091 52.631562 -10.928442 -24.738816 -6.638363 50.147044 53.702286 -5.781784 33.507075 -1.5887 -165.598909 0.865918 86.039914 -169.16806 -2.571865 73.920013 -160.651834 -19.150517 115.397622 13.260394 -12.781431 -4.127381 118.248459 -71.51213 91.141858 -87.811669 69.85502 63.18887 -1.440835 -26.859948 1.62368 -70.374101 81.484295 91.349048 -169.31636 35.335469 -130.626629 -78.505741 -50.099212 -69.811304 147.384135 22.041208 -154.590132 -41.376938 -72.097135 -91.853881 -138.123925 64.021821 -158.733963 -177.15395 -6.672456 -144.59074 0.646166 3.585518 -1.53344 32.756183 -83.060089 113.866257 -152.013231 -68.655392 -86.843107 -53.796236 -51.195995 -5.806716 -7.175812 -24.911036 3.520722 38.381792 60.718485 -31.944804 164.898939 -26.664389 172.573367 -175.18735 0.240853 172.342157 165.525321 16.299565 139.408151 25.839538 13.690078 7.555159 1.237884 10.786694 1.102408 -14.016117 1.451874 84.204293 54.516531 -6.794643 107.757042 69.127034 -20.424542 146.285871 67.851278 39.782328 60.349439 -89.838015 -28.728812 0.170152 68.776022 57.357834 -94.600975 98.271366 2.404455 -20.261069
